# xmcd
#
# Track frame offsets:
#	150
#	11850
#	21425
#	33867
#	43470
#	56870
#	67787
#	78392
#	88917
#	100002
#	110567
#	122812
#	132717
#	145637
#	155155
#	161277
#	173622
#	185795
#	189387
#	199945
#	204607
#	212762
#	223767
#	235900
#	247705
#	259460
#	272152
#	286117
#
# Disc length: 4317 seconds
#
# Revision: 0
# Processed by: cddbd v1.5.2PL0 Copyright (c) Steve Scherf et al.
# Submitted via: dBpowerAMP V4.0
#
DISCID=a910db1c
DTITLE=Ernie Chaffin - Laughin' And Jokin'
DYEAR=1900
DGENRE=Country
TTITLE0=Feelin' Low
TTITLE1=Lonesome For My Baby
TTITLE2=I'm Lonesome
TTITLE3=Laughin' And Jokin'
TTITLE4=Born To Lose
TTITLE5=(Nothing Can Change) My Love For You
TTITLE6=Don't Ever Leave Me
TTITLE7=Miracle Of You
TTITLE8=The Heart Of Me
TTITLE9=Linda
TTITLE10=I Walk Alone
TTITLE11=Born To Lose (alt)
TTITLE12=Feelin' Low (alt 1)
TTITLE13=My Haert Tells Me
TTITLE14=No Fool Like An Old Fool
TTITLE15=Be Faithful To Me
TTITLE16=I'm Lonesome (alt 1)
TTITLE17=Laughin' And Jokin' (alt)
TTITLE18=Miracle Of You (undubbed master)
TTITLE19=I Walk Alone (alt)
TTITLE20=Got You On My Mind
TTITLE21=The Heart Of Me (alt)
TTITLE22=My Love For You (undubbed master)
TTITLE23=Lonesome For My Baby (alt)
TTITLE24=Born To Lose (undubbed master)
TTITLE25=I'm Lonesome (alt 2)
TTITLE26=Feelin' Low (alt 2)
TTITLE27=Interview
EXTD=The Sun Years
EXTT0=
EXTT1=
EXTT2=
EXTT3=
EXTT4=
EXTT5=
EXTT6=
EXTT7=
EXTT8=
EXTT9=
EXTT10=
EXTT11=
EXTT12=
EXTT13=
EXTT14=
EXTT15=
EXTT16=
EXTT17=
EXTT18=
EXTT19=
EXTT20=
EXTT21=
EXTT22=
EXTT23=
EXTT24=
EXTT25=
EXTT26=
EXTT27=
PLAYORDER=
